<svg class="walker" viewBox="-30 -45 700 635" role="img" aria-label="A smiling character walking along holding a flower" xmlns="http://www.w3.org/2000/svg">
  <defs>
    <linearGradient id="walker-fade" gradientUnits="userSpaceOnUse" x1="-30" y1="0" x2="670" y2="0">
      <stop offset="0.04" stop-color="#fff" stop-opacity="0"/>
      <stop offset="0.17" stop-color="#fff" stop-opacity="1"/>
      <stop offset="0.80" stop-color="#fff" stop-opacity="1"/>
      <stop offset="0.96" stop-color="#fff" stop-opacity="0"/>
    </linearGradient>
    <mask id="walker-ground-mask" maskUnits="userSpaceOnUse" x="-30" y="-45" width="700" height="635">
      <rect x="-30" y="-45" width="700" height="635" fill="url(#walker-fade)"/>
    </mask>
    <radialGradient id="walker-shadow">
      <stop class="shadow-stop" offset="0" stop-opacity="0.45"/>
      <stop class="shadow-stop" offset="0.5" stop-opacity="0.2"/>
      <stop class="shadow-stop" offset="1" stop-opacity="0"/>
    </radialGradient>

    <!-- Your two leg drawings, untouched. Straight = planted leg, curvy = swinging leg; the script blends between them. -->
    <path id="legStraightFill" d="M146.257 492.622L302.487 282.553C303.366 281.37 304.975 281.001 306.281 281.683L315.249 286.362C315.425 286.454 315.609 286.528 315.8 286.583L327.055 289.851C329.01 290.418 329.844 292.727 328.703 294.413L152.749 554.434C151.8 555.838 149.877 556.177 148.505 555.183L11.233 455.746C10.2025 454.999 9.75435 453.676 10.1333 452.461C22.3988 413.149 48.0605 388.52 60.5132 380C122.386 347.635 135.934 437.142 140.832 491.11C141.082 493.864 144.606 494.841 146.257 492.622Z"/>
    <path id="legStraightInk"  d="M294.83 276.115C298.585 271.517 303.853 276.164 309.234 278.668L309.769 278.932L318.117 283.289L328.705 286.362C337.177 288.822 341.931 292.711 336.987 300.017L161.032 560.039C156.917 566.12 148.586 567.588 142.64 563.281L5.368 463.844C0.904 460.611 -1.085 454.848 0.589 449.482C13.636 407.664 40.897 381.306 54.868 371.747L55.355 371.413L55.88 371.138C73.221 362.068 89.034 360.682 102.703 367.053C115.833 373.173 124.8 385.483 131.098 398.942C141.056 420.226 146.064 448.204 148.929 472.271L294.464 276.585L294.83 276.115ZM306.283 281.683C304.976 281.001 303.368 281.37 302.488 282.552L146.258 492.622C144.659 494.772 141.302 493.922 140.866 491.363L140.833 491.11C135.935 437.142 122.388 347.635 60.515 380C48.062 388.52 22.4 413.149 10.135 452.461C9.756 453.675 10.204 454.999 11.234 455.746L148.506 555.182C149.835 556.145 151.682 555.858 152.659 554.563L152.751 554.434L328.705 294.413C329.846 292.727 329.012 290.418 327.057 289.85L315.802 286.583C315.707 286.555 315.612 286.523 315.52 286.486L315.25 286.362L306.283 281.683Z"/>
    <path id="legCurvyFill"    d="M383.014 468C302.939 454.833 319.156 358.967 337.409 302.929C339.179 297.493 339.514 298.021 346.014 298.021H352.893C355.784 299.221 357.241 302.493 356.343 305.491C325.835 407.365 386.512 459.689 425.513 416C457.254 380.442 479.754 319.135 485.306 293L614.258 385.957C614.682 386.263 614.778 386.88 614.503 387.326C534.232 517.524 495.628 422.044 491.824 355.216C491.698 353.004 488.405 352.469 487.587 354.529C453.495 440.358 427.329 470.89 383.014 468Z"/>
    <path id="legCurvyInk"     d="M620.106 377.845C625.179 381.502 625.779 388.091 623.016 392.573C602.673 425.57 584.103 445.799 566.862 455.376C558.065 460.262 549.305 462.545 540.757 461.981C532.175 461.416 524.651 458.034 518.285 452.998C505.921 443.217 497.445 426.857 491.818 409.882C489.215 402.03 487.124 393.742 485.522 385.399C472.661 414.442 460.215 436.192 446.539 451.256C428.213 471.441 407.658 479.628 382.364 477.979L381.875 477.947L381.391 477.867C359.242 474.225 342.933 464.659 331.758 450.813C320.737 437.158 315.374 420.169 313.402 402.66C309.486 367.891 318.638 328.27 327.901 299.832L328.078 299.312C331.929 288.486 334.514 288.785 344.514 288.785L357.514 289.5C365.379 292.767 368.215 300.705 365.922 308.36C351.221 357.452 359.212 392.206 372.681 409.097C379.353 417.463 387.083 421.258 394.293 421.496C401.439 421.732 409.849 418.531 418.053 409.341C432.95 392.653 446.012 369.484 456.1 346.89C466.173 324.331 472.928 303.148 475.525 290.922L478.712 275.919L620.106 377.845ZM485.306 293C479.754 319.135 457.254 380.442 425.513 416C386.817 459.348 326.783 408.176 355.645 307.87L356.343 305.491C357.241 302.493 355.784 299.221 352.893 298.021H346.014C339.514 298.021 339.179 297.493 337.409 302.929C319.156 358.967 302.939 454.833 383.014 468C427.329 470.89 453.495 440.358 487.587 354.529C488.405 352.469 491.699 353.004 491.825 355.217C495.614 421.783 533.933 516.779 613.565 388.842L614.503 387.326C614.76 386.908 614.694 386.34 614.335 386.019L614.258 385.957L485.306 293Z"/>
  </defs>

  <!-- Contact shadows (positioned by the script) -->
  <g data-wk="shadows">
    <ellipse data-wk="shadow-body" fill="url(#walker-shadow)" rx="0" ry="0"/>
    <ellipse data-wk="shadow-far"  fill="url(#walker-shadow)" rx="0" ry="0"/>
    <ellipse data-wk="shadow-near" fill="url(#walker-shadow)" rx="0" ry="0"/>
  </g>

  <!-- Original ground: shown only if JavaScript doesn't run -->
  <g data-wk="ground-static"><path class="ink" d="M235.312 529.799C314.625 501.102 425.739 499.216 473.588 501.879L475.818 502.01L475.842 502.011L475.866 502.013C518.661 505.045 605.679 523.637 628.301 529.669C630.969 530.38 632.555 533.12 631.844 535.788C631.132 538.456 628.393 540.043 625.725 539.331C603.355 533.366 517.098 514.968 475.208 511.99V511.991C429.085 509.171 317.341 510.754 238.714 539.202C158.128 568.359 80.2779 563.889 51.0098 557.898C48.3046 557.345 46.5606 554.702 47.1143 551.997C47.6682 549.292 50.3104 547.548 53.0156 548.102C80.7477 553.778 156.698 558.242 235.312 529.799Z"/></g>

  <!-- Scrolling ground (generated by the script) -->
  <g mask="url(#walker-ground-mask)">
    <g data-wk="ground-track"><path data-wk="ground" class="ground" d="" style="display:none"/></g>
  </g>

  <!-- Original drawn legs: shown only if JavaScript doesn't run -->
  <g data-wk="legs-static"><path class="body" d="M383.014 468C302.939 454.833 319.156 358.967 337.409 302.929C339.179 297.493 339.514 298.021 346.014 298.021H352.893C355.784 299.221 357.241 302.493 356.343 305.491C325.835 407.365 386.512 459.689 425.513 416C457.254 380.442 479.754 319.135 485.306 293L614.258 385.957C614.682 386.263 614.778 386.88 614.503 387.326C534.232 517.524 495.628 422.044 491.824 355.216C491.698 353.004 488.405 352.469 487.587 354.529C453.495 440.358 427.329 470.89 383.014 468Z"/><path class="ink" d="M620.106 377.845C625.179 381.502 625.779 388.091 623.016 392.573C602.673 425.57 584.103 445.799 566.862 455.376C558.065 460.262 549.305 462.545 540.757 461.981C532.175 461.416 524.651 458.034 518.285 452.998C505.921 443.217 497.445 426.857 491.818 409.882C489.215 402.03 487.124 393.742 485.522 385.399C472.661 414.442 460.215 436.192 446.539 451.256C428.213 471.441 407.658 479.628 382.364 477.979L381.875 477.947L381.391 477.867C359.242 474.225 342.933 464.659 331.758 450.813C320.737 437.158 315.374 420.169 313.402 402.66C309.486 367.891 318.638 328.27 327.901 299.832L328.078 299.312C331.929 288.486 334.514 288.785 344.514 288.785L357.514 289.5C365.379 292.767 368.215 300.705 365.922 308.36C351.221 357.452 359.212 392.206 372.681 409.097C379.353 417.463 387.083 421.258 394.293 421.496C401.439 421.732 409.849 418.531 418.053 409.341C432.95 392.653 446.012 369.484 456.1 346.89C466.173 324.331 472.928 303.148 475.525 290.922L478.712 275.919L620.106 377.845ZM485.306 293C479.754 319.135 457.254 380.442 425.513 416C386.817 459.348 326.783 408.176 355.645 307.87L356.343 305.491C357.241 302.493 355.784 299.221 352.893 298.021H346.014C339.514 298.021 339.179 297.493 337.409 302.929C319.156 358.967 302.939 454.833 383.014 468C427.329 470.89 453.495 440.358 487.587 354.529C488.405 352.469 491.699 353.004 491.825 355.217C495.614 421.783 533.933 516.779 613.565 388.842L614.503 387.326C614.76 386.908 614.694 386.34 614.335 386.019L614.258 385.957L485.306 293Z"/><path class="ink" d="M629.62 355.611C630.94 353.185 633.976 352.288 636.402 353.607C641.908 356.602 649.082 362.729 653.005 371.681C657.052 380.915 657.406 392.654 649.863 405.965C648.502 408.367 645.45 409.212 643.048 407.851C640.646 406.489 639.801 403.438 641.162 401.035C647.219 390.346 646.574 381.918 643.846 375.694C640.994 369.187 635.617 364.564 631.624 362.393C629.198 361.073 628.301 358.037 629.62 355.611ZM623.057 325.717C627.812 324.27 639.274 323.204 648.612 330.575C650.779 332.286 651.149 335.431 649.438 337.599C647.727 339.766 644.582 340.136 642.414 338.425C636.552 333.797 628.881 334.397 625.969 335.283C623.327 336.087 620.534 334.598 619.73 331.956C618.926 329.314 620.415 326.521 623.057 325.717Z"/><path class="body" d="M146.257 492.622L302.487 282.553C303.366 281.37 304.975 281.001 306.281 281.683L315.249 286.362C315.425 286.454 315.609 286.528 315.8 286.583L327.055 289.851C329.01 290.418 329.844 292.727 328.703 294.413L152.749 554.434C151.8 555.838 149.877 556.177 148.505 555.183L11.233 455.746C10.2025 454.999 9.75435 453.676 10.1333 452.461C22.3988 413.149 48.0605 388.52 60.5132 380C122.386 347.635 135.934 437.142 140.832 491.11C141.082 493.864 144.606 494.841 146.257 492.622Z"/><path class="ink" data-wk="stance-outline" d="M294.83 276.115C298.585 271.518 303.853 276.165 309.234 278.669L309.769 278.932L318.117 283.289L328.705 286.362C337.177 288.822 341.931 292.711 336.987 300.018L161.032 560.039C156.917 566.12 148.586 567.589 142.64 563.281L5.36813 463.845C0.903993 460.611 -1.08533 454.848 0.588836 449.482C13.6363 407.664 40.8967 381.306 54.8681 371.747L55.3554 371.413L55.8799 371.139C73.2211 362.068 89.0338 360.682 102.703 367.054C115.833 373.174 124.8 385.483 131.098 398.942C141.056 420.226 146.064 448.204 148.929 472.271L294.464 276.585L294.83 276.115ZM306.283 281.684C304.976 281.002 303.368 281.37 302.488 282.553L146.258 492.622C144.659 494.772 141.302 493.922 140.866 491.363L140.833 491.11C135.935 437.142 122.388 347.636 60.5146 380C48.0619 388.52 22.4002 413.149 10.1347 452.461C9.75575 453.676 10.2039 455 11.2343 455.746L148.506 555.183C149.835 556.146 151.682 555.858 152.659 554.563L152.751 554.435L328.705 294.413C329.846 292.727 329.012 290.418 327.057 289.851L315.802 286.583C315.707 286.555 315.612 286.523 315.52 286.486L315.25 286.362L306.283 281.684Z"/></g>

  <g data-wk="character">
    <g data-wk="leg-far"><path data-wk="far-ink" class="leg-ink"/><path data-wk="far-paper" class="leg-paper"/></g>
    <g data-wk="leg-near"><path data-wk="near-ink" class="leg-ink"/><path data-wk="near-paper" class="leg-paper"/></g>
    <!-- Everything above the hips -->
    <g data-wk="upper">
      <g data-wk="head">
        <path class="head" d="M501.014 149C501.014 225.768 438.781 288 362.014 288C285.246 288 223.014 225.768 223.014 149C223.014 72.2324 285.246 10 362.014 10C438.781 10 501.014 72.2324 501.014 149Z"/><path class="ink" d="M501.014 149C501.014 72.2324 438.781 10 362.014 10C285.246 10 223.014 72.2324 223.014 149C223.014 225.768 285.246 288 362.014 288C438.781 288 501.014 225.768 501.014 149ZM511.014 149C511.014 231.29 444.304 298 362.014 298C279.723 298 213.014 231.29 213.014 149C213.014 66.7096 279.723 0 362.014 0C444.304 0 511.014 66.7096 511.014 149Z"/>
        <g data-wk="smile"><path class="ink" d="M339.983 84.8876C341.149 82.3848 344.124 81.3012 346.627 82.4677C349.13 83.6343 350.214 86.6093 349.047 89.1122C344.717 98.403 339.894 114.961 339.196 130.333C338.848 138.01 339.548 145.036 341.591 150.6C343.596 156.062 346.793 159.893 351.485 161.904C364.371 167.427 376.091 161.99 386.889 150.619C397.679 139.256 406.278 123.125 411.984 110.888C413.15 108.385 416.124 107.302 418.627 108.469C421.13 109.635 422.213 112.609 421.046 115.112C415.252 127.541 406.101 144.911 394.141 157.506C382.189 170.093 366.158 179.073 347.545 171.096C339.737 167.749 334.911 161.423 332.203 154.047C329.532 146.772 328.826 138.28 329.207 129.88C329.969 113.097 335.146 95.2633 339.983 84.8876Z"/></g>
        <ellipse class="ink" data-wk="eye-1" cx="403.178" cy="83.8797" rx="7.89982" ry="6.23454" transform="rotate(-62.6931 403.178 83.8797)"/><ellipse class="ink" data-wk="eye-2" cx="381.178" cy="73.8797" rx="7.89982" ry="6.23454" transform="rotate(-62.6931 381.178 73.8797)"/>
      </g>

      <g data-wk="arm-left">
        <g data-wk="flower">
          <g data-wk="stem-tip"><path class="ink" d="M174.739 318.548C177.198 317.291 180.21 318.266 181.467 320.725L192.967 343.225C194.223 345.683 193.249 348.695 190.79 349.952C188.331 351.209 185.319 350.234 184.062 347.775L172.562 325.275C171.306 322.817 172.28 319.805 174.739 318.548Z"/></g>
          <g data-wk="bloom"><path class="petal" fill-rule="evenodd" clip-rule="evenodd" d="M89.1454 160.247C103.317 186.639 142.493 160.004 157.637 143.847C158.247 143.196 159.204 143.007 159.97 143.465C164.941 146.438 169.65 152.351 174.802 158.821C186.045 172.939 199.399 189.707 222.189 184.358C222.487 184.288 222.782 184.136 223.016 183.937C246.926 163.533 235.669 144.359 218.741 134.643C216.688 133.465 217.457 127.438 219.792 127.053C242.687 123.284 265.95 112.751 261.149 86.7475C255.652 56.9714 220.633 63.8496 203.394 72.0049C201.785 72.7662 199.869 71.3019 200.253 69.5636C205.459 46.0137 208.794 6.50877 175.146 10.2474C140.747 14.0695 148.128 50.3217 150.835 63.6174C151.669 67.7151 152.059 69.6323 150.646 67.7476C144.646 59.7476 100.646 32.2474 89.1454 62.7474C81.0486 84.2211 109.796 99.6536 128.623 106.114C130.551 106.775 130.577 109.806 128.656 110.486C106.621 118.282 76.104 135.961 89.1454 160.247ZM193.649 113.747C184.146 135.748 157.653 128.747 152.649 113.747C148.149 90.748 162.146 79.248 175.146 79.248C188.146 79.248 201.057 96.599 193.649 113.747Z"/><path class="ink" d="M174.042 0.308537C184.433 -0.846027 193.422 1.24048 200.326 6.88373C207.02 12.3561 210.395 20.0742 212.036 27.5205C214.169 37.2043 213.754 48.1968 212.456 58.0156C220.224 55.8245 229.045 54.469 237.52 55.1874C244.626 55.7898 252.124 57.9101 258.427 62.8867C264.893 67.9918 269.226 75.4165 270.983 84.9316C272.477 93.0263 271.874 100.495 269.229 107.169C266.598 113.81 262.194 119.043 257.041 123.098C250.55 128.204 242.608 131.65 234.546 133.988C239.886 139.078 244.22 145.465 245.945 153.07C248.966 166.391 243.276 179.794 229.507 191.544C228.107 192.739 226.381 193.646 224.474 194.094C209.878 197.519 197.975 193.728 188.451 187.095C179.45 180.825 172.417 171.878 166.98 165.051C163.94 161.234 161.521 158.268 159.457 156.061C150.929 163.841 138.962 172.403 126.739 177.289C119.175 180.313 110.513 182.334 102.088 180.961C93.0676 179.491 85.3255 174.271 80.3355 164.978C75.968 156.845 74.9852 148.594 77.0504 140.77C79.0409 133.23 83.621 126.978 88.8111 121.979C94.4401 116.558 101.408 112.019 108.462 108.348C102.777 105.391 97.1161 101.82 92.2603 97.6357C82.3788 89.1195 73.5595 75.7409 79.7887 59.2197C83.7379 48.7458 91.0522 42.3566 100.141 39.8867C108.566 37.5971 117.443 38.9547 124.903 41.2529C129.637 42.7113 134.217 44.6772 138.374 46.8134C138.125 41.9178 138.28 36.6579 139.25 31.5234C140.559 24.5938 143.451 17.2499 149.349 11.2929C155.339 5.24366 163.594 1.46949 174.042 0.308537ZM200.254 69.5634C205.46 46.0136 208.794 6.50836 175.146 10.247C140.748 14.0691 148.129 50.3212 150.836 63.6171C151.67 67.7147 152.059 69.6324 150.646 67.748C144.646 59.748 100.647 32.2476 89.1461 62.747C81.0493 84.2206 109.797 99.654 128.624 106.114C130.551 106.776 130.577 109.806 128.656 110.485C106.622 118.281 76.1052 135.961 89.1461 160.247C103.318 186.638 142.493 160.004 157.637 143.848C158.248 143.197 159.204 143.007 159.97 143.465C164.941 146.438 169.65 152.351 174.802 158.82C186.046 172.938 199.399 189.706 222.189 184.358C222.488 184.288 222.783 184.135 223.016 183.936C246.926 163.533 235.669 144.359 218.742 134.643C216.689 133.465 217.458 127.437 219.794 127.053C242.688 123.283 265.95 112.75 261.149 86.747C255.652 56.9717 220.634 63.8496 203.395 72.0048C201.786 72.7662 199.869 71.3017 200.254 69.5634ZM175.146 79.248C188.146 79.248 201.057 96.5988 193.65 113.747C184.146 135.748 157.653 128.747 152.65 113.747C148.15 90.748 162.146 79.2481 175.146 79.248ZM175.146 89.248C171.516 89.248 167.724 90.8682 165.17 94.0878C162.816 97.0546 160.784 102.343 162.325 111.073C163.592 114.019 167.456 117.153 172.494 117.676C176.842 118.127 181.551 116.54 184.47 109.782C186.755 104.493 185.934 99.2686 183.499 95.249C180.865 90.902 177.252 89.248 175.146 89.248Z"/><path class="center" d="M175.146 89.248C171.516 89.248 167.724 90.8682 165.17 94.0878C162.816 97.0546 160.784 102.343 162.325 111.073C163.592 114.019 167.456 117.153 172.494 117.676C176.842 118.127 181.551 116.54 184.47 109.782C186.755 104.493 185.934 99.2686 183.499 95.249C180.865 90.902 177.252 89.248 175.146 89.248Z"/></g>
          <path class="ink" d="M154.055 149.436C154.367 146.692 156.843 144.721 159.587 145.033C162.331 145.345 164.302 147.821 163.99 150.565C161.529 172.228 161.037 213.336 163.985 237.905C164.314 240.647 162.359 243.136 159.617 243.465C156.876 243.794 154.386 241.838 154.057 239.096C153.098 231.103 152.49 221.484 152.188 211.357C130.66 228.603 87.9087 203.236 93.5157 195.003C94.0105 185.248 135.264 187.765 151.973 199.692C151.83 181.03 152.617 162.094 154.055 149.436Z"/>
        </g>
        <path class="ink" fill-rule="evenodd" clip-rule="evenodd" d="M129.389 306.495C131.931 309.574 135.471 311.833 140.079 313.147C141.368 318.42 144.973 324.753 151.158 328.721C158.44 333.392 168.414 334.246 180.448 328.089C184.845 325.839 187.991 322.877 189.731 319.212L189.771 319.127C189.788 319.091 189.805 319.055 189.821 319.019C195.27 318.634 199.562 317.251 202.703 313.949C204.514 312.045 205.637 309.809 206.473 307.602C206.83 306.66 207.157 305.655 207.47 304.615C214.312 305.344 222.481 305.734 231.026 305.125C245.587 304.088 260.153 300.085 265.64 297.733C270.382 295.701 275.922 292.099 280.858 288.412C285.834 284.695 290.534 280.639 293.598 277.484L298.359 272.583L291.249 269.028C283.283 265.046 276.182 259.529 270.353 252.797L270.296 252.731C270.208 252.629 270.116 252.531 270.021 252.437C269.869 252.288 269.706 252.147 269.532 252.015C269.166 251.737 268.774 251.518 268.368 251.356C267.774 251.119 267.142 251 266.509 251C265.665 251.001 264.827 251.215 264.081 251.63C263.788 251.793 263.507 251.988 263.244 252.216C263.14 252.305 263.041 252.398 262.946 252.494C262.798 252.645 262.658 252.807 262.527 252.98L262.461 253.067C255.666 261.966 237.075 275.434 207.445 266.934C209.867 262.928 212.363 258.013 213.919 252.815C215.92 246.127 216.601 238.141 212.479 231.108C207.476 222.574 199.634 217.327 189.888 217.015C180.416 216.712 170.011 221.096 159.484 229.78C153.961 226.875 145.912 223.873 138.133 223.341C133.477 223.023 128.444 223.558 124.079 226.009C119.532 228.562 116.263 232.886 114.807 238.975C113.168 245.832 114.107 251.761 117.269 256.444C117.895 257.371 118.59 258.222 119.341 259.003C116.994 264.238 115.457 271.544 118.066 278.311C119.548 282.156 122.153 285.348 125.934 287.737C124.576 293.044 124.477 300.543 129.389 306.495ZM200.553 275.257C232.746 286.158 255.377 274.694 266.616 263.449C271.09 267.918 276.093 271.823 281.512 275.079C279.514 276.8 277.247 278.629 274.875 280.4C270.157 283.924 265.359 286.974 261.701 288.542C257.363 290.401 243.907 294.182 230.315 295.15C222.864 295.681 215.661 295.383 209.478 294.768C209.021 293.169 207.779 291.834 206.065 291.336C203.413 290.566 200.639 292.092 199.869 294.744C199.555 295.825 199.269 296.851 199.005 297.807L198.898 298.194C198.215 300.671 197.705 302.518 197.122 304.059C196.526 305.63 195.988 306.499 195.458 307.057C194.851 307.695 193.745 308.454 190.923 308.856C190.893 308.692 190.861 308.529 190.828 308.366C189.566 302.274 185.656 296.585 182.678 292.777C182.662 292.175 182.618 291.562 182.544 290.937C181.978 286.182 179.715 281.102 175.69 275.663C175.464 275.358 175.208 275.087 174.932 274.849C175.318 272.129 175.144 269.43 174.655 266.96C178.909 264.756 183.533 261.393 188.535 256.832C190.575 254.972 190.721 251.809 188.861 249.769C187 247.728 183.838 247.582 181.797 249.442C175.468 255.214 170.627 258.117 167.168 259.361C167.057 259.401 166.948 259.439 166.84 259.475C165.926 259.784 165.113 259.974 164.4 260.068C162.801 260.28 161.857 259.998 161.297 259.69C160.726 259.376 160.156 258.814 159.681 257.815C159.632 257.712 159.584 257.604 159.539 257.494C159.419 257.204 159.311 256.891 159.217 256.557C158.606 254.383 158.572 251.315 159.482 247.899C160.562 243.844 162.795 240.013 165.848 237.494C175.321 229.679 183.416 226.813 189.568 227.01C195.447 227.198 200.355 230.2 203.852 236.166C205.957 239.758 205.975 244.478 204.338 249.948C202.822 255.015 200.085 260.018 197.528 263.926L197.019 264.692C194.538 268.383 196.02 273.721 200.553 275.257ZM161.44 313.578C157.751 314.153 154.359 314.447 151.254 314.476C152.426 316.629 154.194 318.788 156.558 320.305C160.318 322.716 166.428 324.029 175.893 319.187C178.844 317.677 180.122 316.134 180.697 314.923C181.274 313.707 181.419 312.245 181.036 310.395C180.643 308.5 179.764 306.502 178.631 304.528C174.023 310.126 166.625 312.7 161.506 313.567L161.473 313.573L161.44 313.578ZM137.452 233.318C142.75 233.68 148.524 235.614 152.934 237.687C151.543 240.141 150.507 242.744 149.819 245.325C148.915 248.717 148.547 252.342 148.922 255.776C147.487 256.219 145.746 256.569 143.772 256.743C140.142 257.062 136.231 256.736 132.851 255.678C129.451 254.614 126.969 252.939 125.556 250.847C124.234 248.89 123.423 245.944 124.533 241.3C125.406 237.646 127.095 235.784 128.974 234.729C131.035 233.572 133.899 233.075 137.452 233.318ZM152.528 265.119C153.583 266.431 154.891 267.579 156.476 268.451C159.018 269.85 161.936 270.357 165.038 270.059C165.335 272.5 165.015 274.856 163.915 276.717C162.375 279.32 158.265 282.638 147.147 282.638C132.893 282.638 128.685 278.055 127.397 274.714C126.231 271.689 126.66 267.866 127.878 264.525C128.536 264.782 129.2 265.014 129.865 265.222C134.672 266.727 139.918 267.119 144.647 266.704C147.349 266.466 150.058 265.949 152.528 265.119ZM169.991 285.143C165.376 289.958 157.8 292.638 147.147 292.638C142.714 292.638 138.786 292.23 135.347 291.457C134.8 294.574 135.219 297.849 137.101 300.13C139.304 302.798 145.112 305.995 159.866 303.702C164.238 302.955 169.08 300.819 171.319 297.636C172.317 296.217 172.893 294.477 172.613 292.119C172.399 290.321 171.661 288.011 169.991 285.143Z"/><path class="body" d="M137.452 233.318C142.75 233.68 148.524 235.614 152.934 237.687C151.543 240.141 150.507 242.744 149.819 245.325C148.915 248.717 148.547 252.342 148.922 255.776C147.487 256.219 145.746 256.569 143.772 256.743C140.142 257.062 136.231 256.736 132.851 255.678C129.451 254.614 126.969 252.939 125.556 250.847C124.234 248.89 123.423 245.944 124.533 241.3C125.406 237.646 127.095 235.784 128.974 234.729C131.035 233.572 133.899 233.075 137.452 233.318Z"/><path class="body" d="M152.528 265.119C153.583 266.431 154.891 267.579 156.476 268.451C159.018 269.85 161.936 270.357 165.038 270.059C165.335 272.5 165.015 274.856 163.915 276.717C162.375 279.32 158.265 282.638 147.147 282.638C132.893 282.638 128.685 278.055 127.397 274.714C126.231 271.689 126.66 267.866 127.878 264.525C128.536 264.782 129.2 265.014 129.865 265.222C134.672 266.727 139.918 267.119 144.647 266.704C147.349 266.466 150.058 265.949 152.528 265.119Z"/><path class="body" d="M169.991 285.143C165.376 289.958 157.8 292.638 147.147 292.638C142.714 292.638 138.786 292.23 135.347 291.457C134.8 294.574 135.219 297.849 137.101 300.13C139.304 302.798 145.112 305.995 159.866 303.702C164.238 302.955 169.08 300.819 171.319 297.636C172.317 296.217 172.893 294.477 172.613 292.119C172.399 290.321 171.661 288.011 169.991 285.143Z"/><path class="body" d="M161.44 313.578C157.751 314.153 154.359 314.447 151.254 314.476C152.426 316.629 154.194 318.788 156.558 320.305C160.318 322.716 166.428 324.029 175.893 319.187C178.844 317.677 180.122 316.134 180.697 314.923C181.274 313.707 181.419 312.245 181.036 310.395C180.643 308.5 179.764 306.502 178.631 304.528C174.023 310.126 166.625 312.7 161.506 313.567L161.473 313.573L161.44 313.578Z"/><path class="body" d="M200.553 275.257C232.746 286.158 255.377 274.694 266.616 263.449C271.09 267.918 276.093 271.823 281.512 275.079C279.514 276.8 277.247 278.629 274.875 280.4C270.157 283.924 265.359 286.974 261.701 288.542C257.363 290.401 243.907 294.182 230.315 295.15C222.864 295.681 215.661 295.383 209.478 294.768C209.021 293.169 207.779 291.834 206.065 291.336C203.413 290.566 200.639 292.092 199.869 294.744C199.555 295.825 199.269 296.851 199.005 297.807L198.898 298.194C198.215 300.671 197.705 302.518 197.122 304.059C196.526 305.63 195.988 306.499 195.458 307.057C194.851 307.695 193.745 308.454 190.923 308.856C190.893 308.692 190.861 308.529 190.828 308.366C189.566 302.274 185.656 296.585 182.678 292.777C182.662 292.175 182.618 291.562 182.544 290.937C181.978 286.182 179.715 281.102 175.69 275.663C175.464 275.358 175.208 275.087 174.932 274.849C175.318 272.129 175.144 269.43 174.655 266.96C178.909 264.756 183.533 261.393 188.535 256.832C190.575 254.972 190.721 251.809 188.861 249.769C187 247.728 183.838 247.582 181.797 249.442C175.468 255.214 170.627 258.117 167.168 259.361C167.057 259.401 166.948 259.439 166.84 259.475C165.926 259.784 165.113 259.974 164.4 260.068C162.801 260.28 161.857 259.998 161.297 259.69C160.726 259.376 160.156 258.814 159.681 257.815C159.632 257.712 159.584 257.604 159.539 257.494C159.419 257.204 159.311 256.891 159.217 256.557C158.606 254.383 158.572 251.315 159.482 247.899C160.562 243.844 162.795 240.013 165.848 237.494C175.321 229.679 183.416 226.813 189.568 227.01C195.447 227.198 200.355 230.2 203.852 236.166C205.957 239.758 205.975 244.478 204.338 249.948C202.822 255.015 200.085 260.018 197.528 263.926L197.019 264.692C194.538 268.383 196.02 273.721 200.553 275.257Z"/>
      </g>

      <g data-wk="arm-right"><path class="ink" fill-rule="evenodd" clip-rule="evenodd" d="M446.552 199.357C446.575 199.344 446.597 199.33 446.619 199.317C446.616 199.319 446.612 199.321 446.608 199.323C446.824 199.201 447.048 199.097 447.277 199.01C447.463 198.939 447.654 198.879 447.847 198.831C448.022 198.787 448.199 198.754 448.378 198.729L448.424 198.722C448.43 198.721 448.437 198.72 448.444 198.719C448.977 198.653 449.522 198.674 450.055 198.782C450.121 198.795 450.187 198.808 450.252 198.824C450.485 198.881 450.715 198.957 450.941 199.048C451.007 199.075 451.073 199.103 451.138 199.133C451.172 199.148 451.204 199.165 451.237 199.181C451.295 199.209 451.353 199.238 451.41 199.268C451.441 199.285 451.471 199.301 451.502 199.318C451.565 199.354 451.629 199.391 451.692 199.43C451.797 199.495 451.902 199.564 452.005 199.639L452.034 199.659L452.061 199.68C452.071 199.687 452.081 199.694 452.09 199.701C463.081 207.727 469.834 215.708 473.764 222.637C477.628 229.45 478.908 235.531 478.395 239.632L478.383 239.729L478.367 239.825C472.936 272.759 472.747 291.138 473.233 296.117C474.383 301.246 475.615 305.417 476.755 309.278C479.785 319.542 482.167 327.612 480.65 345.645C479.427 360.186 469.62 367.867 459.63 370.916C454.694 372.422 449.585 372.866 445.114 372.537C442.214 372.324 439.289 371.763 436.764 370.761C435.673 371.751 434.596 372.636 433.532 373.419C427.994 377.497 422.444 379.069 417.148 377.874C412.017 376.715 408.229 373.197 405.557 369.479C403.863 367.122 402.474 364.492 401.351 361.865C396.942 362.508 392.848 361.556 389.284 359.316C384.452 356.281 381.112 351.218 378.933 346.126C376.723 340.961 375.47 335.219 375.158 330.119C375.132 329.698 375.159 329.285 375.233 328.888C374.919 328.712 374.608 328.524 374.301 328.327C364.951 322.322 362.739 308.9 368.718 295.946L368.916 295.519L369.19 295.135C382.545 276.439 395.7 269.042 407.677 269.109C416.614 269.159 423.839 273.366 428.91 278.293C434.935 264.226 435.444 253.32 433.694 245.319C431.714 236.263 426.755 230.486 422.703 227.676C419.038 225.133 419.143 219.2 423.571 217.154L423.786 217.059L424.827 216.616C429.935 214.411 433.557 212.401 436.508 210.128C439.599 207.748 442.146 204.927 444.891 200.922L444.92 200.88L444.936 200.859C445.088 200.635 445.256 200.428 445.437 200.238C445.505 200.166 445.576 200.096 445.648 200.029C445.762 199.921 445.881 199.82 446.004 199.725C446.073 199.672 446.144 199.622 446.215 199.573C446.246 199.551 446.276 199.529 446.308 199.508C446.388 199.455 446.469 199.405 446.552 199.357ZM450.048 210.741C447.805 213.504 445.413 215.892 442.611 218.05C439.881 220.153 436.848 221.97 433.338 223.702C437.671 228.222 441.612 234.714 443.464 243.184C446.02 254.875 444.513 269.898 435.321 288.216C433.256 292.331 427.63 292.634 425.031 289.032C421.321 283.89 415.132 279.15 407.621 279.108C400.317 279.068 389.92 283.473 377.607 300.559C373.127 310.633 376.136 317.62 379.705 319.912C382.924 321.98 390.529 322.432 399.955 310.389C401.657 308.215 404.799 307.832 406.974 309.534C409.148 311.236 409.531 314.378 407.83 316.553C400.798 325.537 392.738 330.502 385.271 331.073C385.655 334.703 386.617 338.664 388.127 342.193C389.889 346.311 392.168 349.318 394.603 350.848C396.398 351.976 398.585 352.514 401.537 351.597C401.927 351.327 402.362 351.11 402.836 350.956C403.088 350.874 403.342 350.813 403.596 350.772C407.689 348.788 413.027 344.244 419.486 335.37C421.111 333.137 424.238 332.645 426.47 334.27C428.703 335.895 429.195 339.022 427.57 341.254C421.686 349.339 416.078 354.927 410.688 358.264C411.548 360.226 412.549 362.072 413.677 363.642C415.595 366.311 417.529 367.709 419.35 368.12C421.005 368.494 423.635 368.289 427.603 365.367C431.649 362.388 436.673 356.856 442.642 347.445C444.121 345.114 447.21 344.422 449.542 345.901C451.874 347.38 452.565 350.469 451.086 352.801C448.785 356.428 446.549 359.623 444.37 362.414C444.835 362.476 445.327 362.527 445.847 362.565C449.175 362.81 453.039 362.472 456.711 361.351C463.939 359.145 469.897 354.192 470.686 344.807C472.039 328.726 470.237 322.642 467.409 313.095C467.407 313.089 467.405 313.084 467.404 313.078C466.203 309.024 464.817 304.345 463.409 298.011L463.352 297.752L463.322 297.487C462.647 291.5 462.934 272.005 468.476 238.348C468.62 237.038 468.242 233.17 465.065 227.57C462.362 222.803 457.723 216.961 450.048 210.741Z"/><path class="ink" d="M451.885 199.553C451.922 199.579 451.958 199.605 451.994 199.631L452.005 199.639C451.932 199.586 451.858 199.536 451.784 199.488C451.818 199.51 451.852 199.531 451.885 199.553Z"/><path class="body" d="M450.048 210.741C447.805 213.504 445.413 215.892 442.611 218.05C439.881 220.153 436.848 221.97 433.338 223.702C437.671 228.222 441.612 234.714 443.464 243.184C446.02 254.875 444.513 269.898 435.321 288.216C433.256 292.331 427.63 292.634 425.031 289.032C421.321 283.89 415.132 279.15 407.621 279.108C400.317 279.068 389.92 283.473 377.607 300.559C373.127 310.633 376.136 317.62 379.705 319.912C382.924 321.98 390.529 322.432 399.955 310.389C401.657 308.215 404.799 307.832 406.974 309.534C409.148 311.236 409.531 314.378 407.83 316.553C400.798 325.537 392.738 330.502 385.271 331.073C385.655 334.703 386.617 338.664 388.127 342.193C389.889 346.311 392.168 349.318 394.603 350.848C396.398 351.976 398.585 352.514 401.537 351.597C401.927 351.327 402.362 351.11 402.836 350.956C403.088 350.874 403.342 350.813 403.596 350.772C407.689 348.788 413.027 344.244 419.486 335.37C421.111 333.137 424.238 332.645 426.47 334.27C428.703 335.895 429.195 339.022 427.57 341.254C421.686 349.339 416.078 354.927 410.688 358.264C411.548 360.226 412.549 362.072 413.677 363.642C415.595 366.311 417.529 367.709 419.35 368.12C421.005 368.494 423.635 368.289 427.603 365.367C431.649 362.388 436.673 356.856 442.642 347.445C444.121 345.114 447.21 344.422 449.542 345.901C451.874 347.38 452.565 350.469 451.086 352.801C448.785 356.428 446.549 359.623 444.37 362.414C444.835 362.476 445.327 362.527 445.847 362.565C449.175 362.81 453.039 362.472 456.711 361.351C463.939 359.145 469.897 354.192 470.686 344.807C472.039 328.726 470.237 322.642 467.409 313.095L467.404 313.078C466.203 309.024 464.817 304.345 463.409 298.011L463.352 297.752L463.322 297.487C462.647 291.5 462.934 272.005 468.476 238.348C468.62 237.038 468.242 233.17 465.065 227.57C462.362 222.803 457.723 216.961 450.048 210.741Z"/></g>
    </g>
  </g>
</svg>
